<?xml version="1.0" encoding="UTF-8" standalone="no"?>
<svg
   viewBox="0 0 320 512"
   version="1.1"
   id="svg1"
   sodipodi:docname="heaticon.svg"
   inkscape:version="1.3.2 (1:1.3.2+202311252150+091e20ef0f)"
   xmlns:inkscape="http://www.inkscape.org/namespaces/inkscape"
   xmlns:sodipodi="http://sodipodi.sourceforge.net/DTD/sodipodi-0.dtd"
   xmlns="http://www.w3.org/2000/svg"
   xmlns:svg="http://www.w3.org/2000/svg">
  <defs
     id="defs1" />
  <sodipodi:namedview
     id="namedview1"
     pagecolor="#ffffff"
     bordercolor="#000000"
     borderopacity="0.25"
     inkscape:showpageshadow="2"
     inkscape:pageopacity="0.0"
     inkscape:pagecheckerboard="0"
     inkscape:deskcolor="#d1d1d1"
     inkscape:zoom="4.1484375"
     inkscape:cx="186.21469"
     inkscape:cy="123.41996"
     inkscape:window-width="1850"
     inkscape:window-height="1016"
     inkscape:window-x="1436"
     inkscape:window-y="27"
     inkscape:window-maximized="1"
     inkscape:current-layer="svg1" />
  <!--!Font Awesome Free 6.5.1 by @fontawesome - https://fontawesome.com License - https://fontawesome.com/license/free Copyright 2024 Fonticons, Inc.-->
  <rect
     style="fill:#ffffff"
     id="rect1"
     width="171.89078"
     height="408.27774"
     x="76.651604"
     y="59.119724"
     ry="0" />
  <path
     d="M160 64c-26.5 0-48 21.5-48 48V276.5c0 17.3-7.1 31.9-15.3 42.5C86.2 332.6 80 349.5 80 368c0 44.2 35.8 80 80 80s80-35.8 80-80c0-18.5-6.2-35.4-16.7-48.9c-8.2-10.6-15.3-25.2-15.3-42.5V112c0-26.5-21.5-48-48-48zM48 112C48 50.2 98.1 0 160 0s112 50.1 112 112V276.5c0 .1 .1 .3 .2 .6c.2 .6 .8 1.6 1.7 2.8c18.9 24.4 30.1 55 30.1 88.1c0 79.5-64.5 144-144 144S16 447.5 16 368c0-33.2 11.2-63.8 30.1-88.1c.9-1.2 1.5-2.2 1.7-2.8c.1-.3 .2-.5 .2-.6V112zM208 368c0 26.5-21.5 48-48 48s-48-21.5-48-48c0-20.9 13.4-38.7 32-45.3V144c0-8.8 7.2-16 16-16s16 7.2 16 16V322.7c18.6 6.6 32 24.4 32 45.3z"
     id="path1" />
</svg>
